<?xml version="1.0" encoding="UTF-8" standalone="no"?>
<!-- Created with Inkscape (http://www.inkscape.org/) -->

<svg
   version="1.1"
   id="svg1"
   width="17mm"
   height="297.00009mm"
   viewBox="0 0 64.251968 1122.52"
   sodipodi:docname="thesis_binding.svg"
   inkscape:version="1.3.2 (091e20ef0f, 2023-11-25, custom)"
   xmlns:inkscape="http://www.inkscape.org/namespaces/inkscape"
   xmlns:sodipodi="http://sodipodi.sourceforge.net/DTD/sodipodi-0.dtd"
   xmlns="http://www.w3.org/2000/svg"
   xmlns:svg="http://www.w3.org/2000/svg">
  <defs
     id="defs1" />
  <sodipodi:namedview
     id="namedview1"
     pagecolor="#ffffff"
     bordercolor="#666666"
     borderopacity="1.0"
     inkscape:showpageshadow="2"
     inkscape:pageopacity="0.0"
     inkscape:pagecheckerboard="0"
     inkscape:deskcolor="#d1d1d1"
     inkscape:zoom="0.74297115"
     inkscape:cx="31.629761"
     inkscape:cy="561.26002"
     inkscape:window-width="1908"
     inkscape:window-height="1044"
     inkscape:window-x="5"
     inkscape:window-y="29"
     inkscape:window-maximized="1"
     inkscape:current-layer="g1"
     inkscape:document-units="mm">
    <inkscape:page
       x="0"
       y="0"
       inkscape:label="2"
       id="page1"
       width="64.251968"
       height="1122.52"
       margin="0"
       bleed="0"
       inkscape:export-filename="thesis_binding.pdf"
       inkscape:export-xdpi="150"
       inkscape:export-ydpi="150" />
  </sodipodi:namedview>
  <g
     id="g1"
     inkscape:groupmode="layer"
     inkscape:label="2">
    <path
       id="path1"
       d="M 0,1122.52 H 793.70078 V 2.8063e-5 H 0 Z"
       style="fill:#191919;fill-opacity:1;fill-rule:nonzero;stroke:none;stroke-width:1.33333" />
    <g
       id="g30"
       transform="translate(-33.973803,-77.59712)">
      <path
         style="fill:#ffffff;fill-opacity:1;fill-rule:nonzero;stroke:none;stroke-width:1.33333"
         d="M 68.443537,141.53462"
         id="path29" />
      <path
         style="fill:#ffffff;fill-opacity:1;fill-rule:nonzero;stroke:none;stroke-width:1.33333"
         d="m 72.271662,137.59712 h -0.828125 v 1.85938 h -2.171875 v -1.85938 h -0.828125 v 1.85938 h -8.203125 c -0.46875,0 -0.546875,0.0156 -0.546875,0.5 0,0.34375 0,0.375 0.281249,0.60937 l 8.468751,6.57813 h 0.828125 v -5.4375 h 2.171875 v 2.09375 h 0.828125 c -0.03125,-0.5625 -0.03125,-2.45313 -0.03125,-3.14063 0,-0.64062 0,-2.54687 0.03125,-3.0625 z m -3.828125,3.9375 v 4.73438 l -6.078125,-4.73438 z"
         id="path28" />
      <path
         style="fill:#ffffff;fill-opacity:1;fill-rule:nonzero;stroke:none;stroke-width:1.33333"
         d="m 68.162286,148.83931 v 0.79688 c 0.406251,0.0625 1.531251,0.20312 1.718751,0.48437 0.140625,0.15625 0.140625,1.64063 0.140625,1.9375 v 2.95313 l -2.281251,-2.75 c -1.593749,-2.125 -2.5625,-3.42188 -4.406249,-3.42188 -2.25,0 -3.609376,2.04688 -3.609376,4.5625 0,2.17188 1.218751,4.01563 3.046876,4.01563 1.015624,0 1.296875,-0.8125 1.296875,-1.25 0,-0.59375 -0.406251,-1.28125 -1.281251,-1.28125 -0.8125,0 -1.203124,0.59375 -1.281249,1.1875 -0.875,-0.76563 -0.953125,-1.78125 -0.953125,-2.1875 0,-1.76563 1.421874,-2.59375 2.8125,-2.59375 1.484374,0 2.859374,1 3.687499,1.79687 l 4.343751,4.14063 c 0.171875,0.1875 0.203124,0.1875 0.546875,0.1875 h 0.328125 v -8.03125 z"
         id="path27" />
      <path
         style="fill:#ffffff;fill-opacity:1;fill-rule:nonzero;stroke:none;stroke-width:1.33333"
         d="m 66.177911,159.36665 c -1.843749,0 -6.453125,0 -6.453125,4.51563 0,4.53125 4.593751,4.53125 6.453125,4.53125 1.828126,0 6.328126,0 6.328126,-4.51563 0,-4.51562 -4.4375,-4.53125 -6.328126,-4.53125 z m -0.234374,2.29688 c 4.515625,0 4.781249,0.28125 5.359374,0.85937 0.375,0.39063 0.5625,0.90625 0.5625,1.35938 0,0.60937 -0.25,1.07812 -0.640625,1.45312 -0.484375,0.48438 -0.796875,0.78125 -5.281249,0.78125 -1.343751,0 -2.5625,0 -3.5625,-0.15625 -1.890625,-0.26562 -2.031251,-1.64062 -2.031251,-2.0625 0,-0.60937 0.296876,-1.79687 1.906251,-2.0625 0.968749,-0.17187 2.515625,-0.17187 3.6875,-0.17187 z"
         id="path26" />
      <path
         style="fill:#ffffff;fill-opacity:1;fill-rule:nonzero;stroke:none;stroke-width:1.33333"
         d="m 68.162286,170.35884 v 0.79688 c 0.406251,0.0625 1.531251,0.20312 1.718751,0.48437 0.140625,0.15625 0.140625,1.64063 0.140625,1.9375 v 2.95313 l -2.281251,-2.75 c -1.593749,-2.125 -2.5625,-3.42188 -4.406249,-3.42188 -2.25,0 -3.609376,2.04688 -3.609376,4.5625 0,2.17188 1.218751,4.01563 3.046876,4.01563 1.015624,0 1.296875,-0.8125 1.296875,-1.25 0,-0.59375 -0.406251,-1.28125 -1.281251,-1.28125 -0.8125,0 -1.203124,0.59375 -1.281249,1.1875 -0.875,-0.76563 -0.953125,-1.78125 -0.953125,-2.1875 0,-1.76563 1.421874,-2.59375 2.8125,-2.59375 1.484374,0 2.859374,1 3.687499,1.79687 l 4.343751,4.14063 c 0.171875,0.1875 0.203124,0.1875 0.546875,0.1875 h 0.328125 v -8.03125 z"
         id="path25" />
    </g>
    <g
       id="g31"
       transform="translate(-9.6573946,436.25079)">
      <path
         style="fill:#ffffff;fill-opacity:1;fill-rule:nonzero;stroke:none;stroke-width:1.33333"
         d="m 45.705256,70.737748 c -0.921875,0 -1.546875,0.5 -1.890625,0.890625 -0.65625,0.781249 -0.765624,1.421875 -0.96875,2.453125 -0.203125,1.234375 -0.40625,2.375 -1.328125,2.375 -1.25,0 -1.25,-1.703125 -1.25,-2.09375 0,-2.125 1.343751,-2.25 1.828125,-2.28125 0.234375,-0.01563 0.234375,-0.171876 0.234375,-0.40625 0,-0.390626 -0.04688,-0.390626 -0.484375,-0.390626 h -1.65625 c -0.359375,0 -0.484375,0 -0.484375,0.281251 0,0.109373 0,0.156249 0.171875,0.4375 0.04688,0.07812 0.1875,0.281249 0.234376,0.390625 -0.296876,0.53125 -0.406251,1.234375 -0.406251,1.921875 0,0.578125 0,3.4375 2.484375,3.4375 2,0 2.421876,-2.359375 2.515625,-2.953125 0.09375,-0.515626 0.218751,-1.15625 0.218751,-1.234375 0.171874,-0.765625 0.640624,-1.515625 1.453124,-1.515625 1.46875,0 1.46875,1.734374 1.46875,2.140625 0,0.968749 -0.3125,2.171875 -2.15625,2.703125 -0.390624,0.125 -0.40625,0.140624 -0.40625,0.46875 0,0.390625 0.06249,0.390625 0.5,0.390625 h 2.203126 c 0.359374,0 0.484374,0 0.484374,-0.281251 0,-0.125 0,-0.171874 -0.296874,-0.546874 l -0.359376,-0.5 c 0.65625,-0.859375 0.65625,-1.890626 0.65625,-2.234375 0,-1.0625 -0.21875,-3.453125 -2.765625,-3.453125 z"
         id="path24" />
      <path
         style="fill:#ffffff;fill-opacity:1;fill-rule:nonzero;stroke:none;stroke-width:1.33333"
         d="m 36.736506,80.08931 c -0.78125,0 -1.375,0.640626 -1.375,1.375 0,0.781251 0.625,1.390626 1.375,1.390626 0.78125,0 1.375001,-0.640626 1.375001,-1.375 0,-0.781251 -0.625001,-1.390626 -1.375001,-1.390626 z"
         id="path23" />
      <path
         style="fill:#ffffff;fill-opacity:1;fill-rule:nonzero;stroke:none;stroke-width:1.33333"
         d="m 48.361507,79.136185 h -0.828126 v 1.171876 h -7.78125 l 0.15625,3.25 h 0.828126 c 0,-1.125 0,-1.25 0.734374,-1.25 h 6.0625 v 1.3125 h 0.828126 c -0.03125,-0.4375 -0.03125,-1.75 -0.03125,-2.281251 0,-0.531249 0,-1.75 0.03125,-2.203125 z"
         id="path22" />
      <path
         style="fill:#ffffff;fill-opacity:1;fill-rule:nonzero;stroke:none;stroke-width:1.33333"
         d="m 45.705256,85.202591 c -0.921875,0 -1.546875,0.5 -1.890625,0.890626 -0.65625,0.781249 -0.765624,1.421874 -0.96875,2.453125 -0.203125,1.234375 -0.40625,2.375 -1.328125,2.375 -1.25,0 -1.25,-1.703125 -1.25,-2.093751 0,-2.125 1.343751,-2.25 1.828125,-2.281249 0.234375,-0.01563 0.234375,-0.171876 0.234375,-0.406251 0,-0.390625 -0.04688,-0.390625 -0.484375,-0.390625 h -1.65625 c -0.359375,0 -0.484375,0 -0.484375,0.281251 0,0.109373 0,0.156249 0.171875,0.4375 0.04688,0.07812 0.1875,0.281249 0.234376,0.390625 -0.296876,0.531249 -0.406251,1.234375 -0.406251,1.921875 0,0.578125 0,3.4375 2.484375,3.4375 2,0 2.421876,-2.359375 2.515625,-2.953126 0.09375,-0.515625 0.218751,-1.156249 0.218751,-1.234374 0.171874,-0.765626 0.640624,-1.515626 1.453124,-1.515626 1.46875,0 1.46875,1.734375 1.46875,2.140626 0,0.968749 -0.3125,2.171874 -2.15625,2.703125 -0.390624,0.125 -0.40625,0.140624 -0.40625,0.468749 0,0.390626 0.06249,0.390626 0.5,0.390626 h 2.203126 c 0.359374,0 0.484374,0 0.484374,-0.281251 0,-0.125 0,-0.171875 -0.296874,-0.546875 l -0.359376,-0.5 c 0.65625,-0.859374 0.65625,-1.890625 0.65625,-2.234374 0,-1.0625 -0.21875,-3.453126 -2.765625,-3.453126 z"
         id="path21" />
      <path
         style="fill:#ffffff;fill-opacity:1;fill-rule:nonzero;stroke:none;stroke-width:1.33333"
         d="m 46.127131,93.569779 c -0.296875,0 -0.296875,0.296875 -0.296875,0.40625 0,0.3125 0.06249,0.328125 0.3125,0.4375 1.25,0.5 1.640625,1.765625 1.640625,2.671874 0,2.781251 -2.578125,2.796876 -3.65625,2.796876 v -5.75 c 0,-0.4375 0,-0.5625 -0.46875,-0.5625 -0.578125,0 -2.015625,0.140624 -2.90625,1.015624 -0.8125,0.8125 -1.046875,1.875 -1.046875,2.984376 0,2.984371 1.9375,4.609371 4.359375,4.609371 2.671876,0 4.40625,-1.96875 4.40625,-4.859371 0,-2.890625 -2.015625,-3.75 -2.34375,-3.75 z m -2.546875,1.765624 v 4.546876 c -0.781249,-0.03125 -1.531249,-0.04688 -2.218749,-0.453125 -0.609376,-0.359375 -1.031251,-1.031251 -1.031251,-1.859375 0,-2.046876 2.296875,-2.21875 3.25,-2.234376 z"
         id="path20" />
      <path
         style="fill:#ffffff;fill-opacity:1;fill-rule:nonzero;stroke:none;stroke-width:1.33333"
         d="m 48.361507,103.25728 h -0.828126 v 1.3125 h -5.03125 c -1.8125,0 -2.75,0.78125 -2.75,2.89062 0,1.9375 1.359376,2.85938 1.9375,3.14063 v 0.0156 h -6.59375 l 0.140625,3.3125 h 0.828125 c 0,-1.1875 0,-1.32813 0.75,-1.32813 h 10.71875 v 1.32813 h 0.828126 c -0.03125,-0.45313 -0.03125,-1.82813 -0.03125,-2.35938 0,-0.53125 0,-1.9375 0.03125,-2.375 h -0.828126 v 1.32813 h -4.0625 c -2.078125,0 -3.078125,-1.53125 -3.078125,-2.76563 0,-0.70312 0.453125,-1.10937 1.906251,-1.10937 h 5.234374 v 1.32812 h 0.828126 c -0.03125,-0.4375 -0.03125,-1.8125 -0.03125,-2.35937 0,-0.53125 0,-1.92188 0.03125,-2.35938 z"
         id="path19" />
      <path
         style="fill:#ffffff;fill-opacity:1;fill-rule:nonzero;stroke:none;stroke-width:1.33333"
         d="m 39.939631,115.53462 -4.53125,0.39063 V 128.519 l 4.53125,0.39062 v -0.8125 c -2.078124,-0.17187 -3.703125,-0.3125 -3.703125,-3.07812 v -1.54688 h 11.296875 v 2.89063 h 0.828126 l -0.03125,-4.15625 0.03125,-4.14063 h -0.828126 v 2.89063 H 36.236502 v -1.53125 c 0,-2.76563 1.609375,-2.90625 3.703125,-3.07813 z"
         id="path18" />
      <path
         style="fill:#ffffff;fill-opacity:1;fill-rule:nonzero;stroke:none;stroke-width:1.33333"
         d="m 41.924003,138.07759 c -4.328126,0 -6.687501,2.90625 -6.687501,6.5 v 8.04688 h 0.828125 v -2.01563 h 11.46875 v 2.01563 h 0.828126 v -8.04688 c 0,-3.67187 -2.359376,-6.5 -6.4375,-6.5 z m -0.03125,2.59375 c 2.234375,0 3.234375,0.29688 4.140626,0.96875 0.875,0.67188 1.5,1.95313 1.5,3.67188 v 2.85937 H 36.064627 v -2.85937 c 0,-1.67188 0.65625,-3 1.640625,-3.71875 0.781251,-0.54688 1.718751,-0.92188 4.187501,-0.92188 z"
         id="path17" />
      <path
         style="fill:#ffffff;fill-opacity:1;fill-rule:nonzero;stroke:none;stroke-width:1.33333"
         d="m 48.361503,153.84712 h -0.828126 v 1.3125 h -5.03125 c -1.8125,0 -2.75,0.78125 -2.75,2.89063 0,1.9375 1.359376,2.85937 1.9375,3.14062 v 0.0156 h -6.59375 l 0.140625,3.3125 h 0.828125 c 0,-1.1875 0,-1.32813 0.75,-1.32813 h 10.71875 v 1.32813 h 0.828126 c -0.03125,-0.45313 -0.03125,-1.82813 -0.03125,-2.35938 0,-0.53125 0,-1.9375 0.03125,-2.375 h -0.828126 v 1.32813 h -4.0625 c -2.078125,0 -3.078125,-1.53125 -3.078125,-2.76563 0,-0.70312 0.453125,-1.10937 1.906251,-1.10937 h 5.234374 v 1.32812 h 0.828126 c -0.03125,-0.4375 -0.03125,-1.8125 -0.03125,-2.35937 0,-0.53125 0,-1.92188 0.03125,-2.35938 z"
         id="path16" />
      <path
         style="fill:#ffffff;fill-opacity:1;fill-rule:nonzero;stroke:none;stroke-width:1.33333"
         d="m 38.939627,166.51509 c -2.078125,0 -3.703125,1.8125 -3.703125,4.96875 v 7.79688 h 0.828125 v -2.01563 h 11.46875 v 2.01563 h 0.828126 c -0.03125,-0.54688 -0.03125,-2.59375 -0.03125,-3.28125 0,-0.6875 0,-2.73438 0.03125,-3.29688 h -0.828126 v 2.03125 h -5 v -3.25 c 0,-3.1875 -1.625,-4.96875 -3.59375,-4.96875 z m 0,2.6875 c 1.25,0 2.859376,0 2.859376,2.96875 v 2.65625 h -5.734376 v -2.65625 c 0,-2.96875 1.5625,-2.96875 2.875,-2.96875 z"
         id="path15" />
    </g>
    <g
       id="g29"
       transform="translate(14.252765,883.23932)">
      <path
         style="fill:#ffffff;fill-opacity:1;fill-rule:nonzero;stroke:none;stroke-width:1.33333"
         d="m 22.216971,71.163529 c -0.296875,0 -0.296875,0.296875 -0.296875,0.406251 0,0.3125 0.0625,0.328124 0.3125,0.4375 1.25,0.5 1.640625,1.765624 1.640625,2.671874 0,2.78125 -2.578125,2.796875 -3.65625,2.796875 v -5.75 c 0,-0.4375 0,-0.5625 -0.46875,-0.5625 -0.578125,0 -2.015624,0.140625 -2.90625,1.015625 -0.812499,0.8125 -1.046874,1.875 -1.046874,2.984375 0,2.984375 1.9375,4.609375 4.359374,4.609375 2.671875,0 4.40625,-1.96875 4.40625,-4.859375 0,-2.890625 -2.015625,-3.75 -2.34375,-3.75 z m -2.546875,1.765625 v 4.546875 c -0.78125,-0.03125 -1.531249,-0.04688 -2.218749,-0.453125 -0.609376,-0.359375 -1.03125,-1.03125 -1.03125,-1.859375 0,-2.046875 2.296874,-2.218749 3.249999,-2.234375 z"
         id="path14" />
      <path
         style="fill:#ffffff;fill-opacity:1;fill-rule:nonzero;stroke:none;stroke-width:1.33333"
         d="m 24.451346,80.128373 h -0.828125 c 0,0.3125 0,0.6875 -0.01563,0.906249 -0.0625,0.265626 -0.109375,0.343751 -0.375,0.546876 l -4.140625,3.203124 -1.953124,-2.421874 c -0.1875,-0.21875 -0.359376,-0.4375 -0.359376,-1.75 h -0.812499 c 0.03125,0.5 0.03125,0.875 0.03125,1.578125 0,0.5 0,1.578125 -0.03125,2.015625 h 0.812499 c 0,-0.234376 0.0625,-0.6875 0.21875,-0.6875 0.07813,0 0.140626,0.109373 0.1875,0.156249 l 2.796875,3.468751 h -8.796874 l 0.140625,3.3125 h 0.828125 c 0,-1.1875 0,-1.3125 0.75,-1.3125 h 10.718749 v 1.3125 h 0.828125 c -0.03125,-0.4375 -0.03125,-1.75 -0.03125,-2.265625 0,-0.531251 0,-1.843751 0.03125,-2.281251 h -0.828125 v 1.3125 h -2.5625 c -0.21875,-0.296875 -0.46875,-0.593749 -0.8125,-1.015624 l 2.984375,-2.3125 c 0.140625,-0.125 0.203125,-0.125 0.203125,-0.125 0.1875,0 0.1875,0.375 0.1875,0.640624 h 0.828125 c -0.03125,-0.453124 -0.03125,-1.718749 -0.03125,-2.234374 0,-0.96875 0,-1.234375 0.03125,-2.046875 z"
         id="path13" />
      <path
         style="fill:#ffffff;fill-opacity:1;fill-rule:nonzero;stroke:none;stroke-width:1.33333"
         d="m 24.451346,91.640091 h -0.828125 v 1.3125 H 11.185722 l 0.140625,3.3125 h 0.828125 c 0,-1.1875 0,-1.3125 0.75,-1.3125 h 10.718749 v 1.3125 h 0.828125 c -0.03125,-0.4375 -0.03125,-1.796874 -0.03125,-2.3125 0,-0.515625 0,-1.875 0.03125,-2.3125 z"
         id="path12" />
      <path
         style="fill:#ffffff;fill-opacity:1;fill-rule:nonzero;stroke:none;stroke-width:1.33333"
         d="m 22.216971,97.722122 c -0.296875,0 -0.296875,0.296876 -0.296875,0.40625 0,0.3125 0.0625,0.328126 0.3125,0.4375 1.25,0.5 1.640625,1.765628 1.640625,2.671878 0,2.78125 -2.578125,2.79687 -3.65625,2.79687 v -5.749998 c 0,-0.4375 0,-0.5625 -0.46875,-0.5625 -0.578125,0 -2.015624,0.140625 -2.90625,1.015625 -0.812499,0.8125 -1.046874,1.875003 -1.046874,2.984373 0,2.98438 1.9375,4.60938 4.359374,4.60938 2.671875,0 4.40625,-1.96875 4.40625,-4.85938 0,-2.890622 -2.015625,-3.749998 -2.34375,-3.749998 z m -2.546875,1.765625 v 4.546873 c -0.78125,-0.0312 -1.531249,-0.0469 -2.218749,-0.45312 -0.609376,-0.35938 -1.03125,-1.03125 -1.03125,-1.85938 0,-2.046873 2.296874,-2.218748 3.249999,-2.234373 z"
         id="path11" />
      <path
         style="fill:#ffffff;fill-opacity:1;fill-rule:nonzero;stroke:none;stroke-width:1.33333"
         d="m 12.826347,108.52681 c -0.78125,0 -1.375,0.64062 -1.375,1.375 0,0.78125 0.625,1.39062 1.375,1.39062 0.78125,0 1.375,-0.64062 1.375,-1.375 0,-0.78125 -0.625,-1.39062 -1.375,-1.39062 z"
         id="path10" />
      <path
         style="fill:#ffffff;fill-opacity:1;fill-rule:nonzero;stroke:none;stroke-width:1.33333"
         d="m 24.451346,107.57368 h -0.828125 v 1.17188 h -7.781249 l 0.15625,3.25 h 0.828125 c 0,-1.125 0,-1.25 0.734374,-1.25 h 6.0625 v 1.3125 h 0.828125 c -0.03125,-0.4375 -0.03125,-1.75 -0.03125,-2.28125 0,-0.53125 0,-1.75 0.03125,-2.20313 z"
         id="path9" />
      <path
         style="fill:#ffffff;fill-opacity:1;fill-rule:nonzero;stroke:none;stroke-width:1.33333"
         d="m 24.451346,113.7065 h -0.828125 v 2.03125 H 12.154472 v -2.03125 h -0.828125 v 4.07812 c 0,0.40625 0,0.57813 0.40625,0.75 l 10.296874,4.59375 -10.296874,4.57813 c -0.40625,0.17187 -0.40625,0.34375 -0.40625,0.75 v 4.07812 h 0.828125 v -2.03125 h 10.906249 c 0.421875,0 0.4375,0.0156 0.515625,0.51563 0.03125,0.34375 0.04687,0.73437 0.04687,1.07812 v 0.4375 h 0.828125 c -0.03125,-0.4375 -0.03125,-1.9375 -0.03125,-2.46875 0,-0.53125 0,-2.04687 0.03125,-2.48437 h -0.828125 v 0.4375 c 0,0.51562 0,0.54687 -0.04687,1.01562 -0.07813,0.54688 -0.09375,0.57813 -0.515625,0.57813 H 12.388847 v -0.0312 l 11.656249,-5.20313 c 0.21875,-0.0937 0.40625,-0.20313 0.40625,-0.53125 0,-0.32813 -0.1875,-0.4375 -0.40625,-0.53125 L 12.154472,118.019 v -0.0156 h 11.468749 v 2.01562 h 0.828125 c -0.03125,-0.51562 -0.03125,-2.5 -0.03125,-3.15625 0,-0.64062 0,-2.64062 0.03125,-3.15625 z"
         id="path8" />
      <path
         style="fill:#ffffff;fill-opacity:1;fill-rule:nonzero;stroke:none;stroke-width:1.33333"
         d="m 24.451346,140.84712 h -0.828125 c 0,0.3125 0,0.6875 -0.01563,0.90625 -0.0625,0.26563 -0.109375,0.34375 -0.375,0.54688 l -4.140625,3.20312 -1.953124,-2.42187 c -0.1875,-0.21875 -0.359376,-0.4375 -0.359376,-1.75 h -0.812499 c 0.03125,0.5 0.03125,0.875 0.03125,1.57812 0,0.5 0,1.57813 -0.03125,2.01563 h 0.812499 c 0,-0.23438 0.0625,-0.6875 0.21875,-0.6875 0.07813,0 0.140626,0.10937 0.1875,0.15625 l 2.796875,3.46875 h -8.796874 l 0.140625,3.3125 h 0.828125 c 0,-1.1875 0,-1.3125 0.75,-1.3125 h 10.718749 v 1.3125 h 0.828125 c -0.03125,-0.4375 -0.03125,-1.75 -0.03125,-2.26563 0,-0.53125 0,-1.84375 0.03125,-2.28125 h -0.828125 v 1.3125 h -2.5625 c -0.21875,-0.29687 -0.46875,-0.59375 -0.8125,-1.01562 l 2.984375,-2.3125 c 0.140625,-0.125 0.203125,-0.125 0.203125,-0.125 0.1875,0 0.1875,0.375 0.1875,0.64062 h 0.828125 c -0.03125,-0.45312 -0.03125,-1.71875 -0.03125,-2.23437 0,-0.96875 0,-1.23438 0.03125,-2.04688 z"
         id="path7" />
      <path
         style="fill:#ffffff;fill-opacity:1;fill-rule:nonzero;stroke:none;stroke-width:1.33333"
         d="m 24.451346,152.35494 h -0.828125 v 1.3125 H 11.185722 l 0.140625,3.3125 h 0.828125 c 0,-1.1875 0,-1.3125 0.75,-1.3125 h 10.718749 v 1.3125 h 0.828125 c -0.03125,-0.4375 -0.03125,-1.79688 -0.03125,-2.3125 0,-0.51563 0,-1.875 0.03125,-2.3125 z"
         id="path6" />
      <path
         style="fill:#ffffff;fill-opacity:1;fill-rule:nonzero;stroke:none;stroke-width:1.33333"
         d="m 24.029471,157.94087 c -0.40625,0 -0.40625,0.17188 -0.40625,0.4375 -0.01563,1.20313 -0.3125,1.20313 -0.765625,1.20313 h -4.124999 c -1.765626,0 -2.9375,1.39062 -2.9375,4.09375 0,1.07812 0.09375,3.32812 1.6875,3.32812 0.8125,0 1.15625,-0.60937 1.15625,-1.125 0,-0.57812 -0.40625,-1.125 -1.125,-1.125 -0.375,0 -0.71875,0.125 -0.921876,0.45313 -0.171874,-0.625 -0.171874,-1.09375 -0.171874,-1.45313 0,-1.29687 0.71875,-2.09375 2.296874,-2.09375 h 0.765625 c 0,3.03125 0.84375,6.07813 2.953125,6.07813 1.75,0 2.125,-2.21875 2.125,-3.54688 0,-1.46875 -0.796875,-2.40625 -1.640625,-2.79687 0.703125,0 1.53125,0 1.53125,-1.92188 v -0.98437 c 0,-0.39063 0,-0.54688 -0.421875,-0.54688 z m -2.234375,3.71875 c 1.796875,0 2.140625,1.60938 2.140625,2.21875 0,0.9375 -0.625,1.73438 -1.515625,1.73438 -1.734375,0 -2.328125,-2.07813 -2.421875,-3.95313 z"
         id="path5" />
      <path
         style="fill:#ffffff;fill-opacity:1;fill-rule:nonzero;stroke:none;stroke-width:1.33333"
         d="m 15.966972,167.40572 -4.546875,0.5625 v 11.3125 h 0.828125 v -2.01563 h 11.374999 v 2.01563 h 0.828125 c -0.03125,-0.54688 -0.03125,-2.73438 -0.03125,-3.4375 l 0.03125,-3.65625 h -0.828125 v 2.54687 h -5.265624 v -1.04687 c 0,-1.84375 0.828124,-1.98438 2.234374,-1.98438 v -0.8125 h -5.296874 v 0.8125 c 1.390624,0 2.234374,0.14063 2.234374,1.98438 v 1.04687 h -5.281249 v -2.73437 c 0,-3.03125 1.390625,-3.51563 3.71875,-3.78125 z"
         id="path3" />
    </g>
  </g>
</svg>
