<?xml version="1.0" encoding="UTF-8" standalone="no"?>
<!-- Generator: Adobe Illustrator 25.0.0, SVG Export Plug-In . SVG Version: 6.00 Build 0)  -->

<svg
   version="1.1"
   id="Layer_1"
   x="0px"
   y="0px"
   viewBox="0 0 149 42.406906"
   xml:space="preserve"
   sodipodi:docname="UA-ned-hor-1-NEG-RGB.svg"
   inkscape:export-filename="UA-ned-hor-1-NEG-RGB.pdf"
   inkscape:export-xdpi="600"
   inkscape:export-ydpi="600"
   inkscape:version="1.3.2 (091e20ef0f, 2023-11-25, custom)"
   width="39.422916mm"
   height="11.22016mm"
   xmlns:inkscape="http://www.inkscape.org/namespaces/inkscape"
   xmlns:x="adobe:ns:meta/"
   xmlns:sodipodi="http://sodipodi.sourceforge.net/DTD/sodipodi-0.dtd"
   xmlns="http://www.w3.org/2000/svg"
   xmlns:svg="http://www.w3.org/2000/svg"
   xmlns:rdf="http://www.w3.org/1999/02/22-rdf-syntax-ns#"
   xmlns:dc="http://purl.org/dc/elements/1.1/"
   xmlns:xmp="http://ns.adobe.com/xap/1.0/"
   xmlns:xmpGImg="http://ns.adobe.com/xap/1.0/g/img/"
   xmlns:xmpMM="http://ns.adobe.com/xap/1.0/mm/"
   xmlns:stRef="http://ns.adobe.com/xap/1.0/sType/ResourceRef#"
   xmlns:stEvt="http://ns.adobe.com/xap/1.0/sType/ResourceEvent#"
   xmlns:illustrator="http://ns.adobe.com/illustrator/1.0/"
   xmlns:xmpTPg="http://ns.adobe.com/xap/1.0/t/pg/"
   xmlns:stDim="http://ns.adobe.com/xap/1.0/sType/Dimensions#"
   xmlns:xmpG="http://ns.adobe.com/xap/1.0/g/"
   xmlns:pdf="http://ns.adobe.com/pdf/1.3/"><defs
   id="defs25" /><sodipodi:namedview
   id="namedview25"
   pagecolor="#ffffff"
   bordercolor="#000000"
   borderopacity="0.25"
   inkscape:showpageshadow="2"
   inkscape:pageopacity="0.0"
   inkscape:pagecheckerboard="0"
   inkscape:deskcolor="#d1d1d1"
   inkscape:zoom="1.6049382"
   inkscape:cx="74.457695"
   inkscape:cy="21.496155"
   inkscape:window-width="1354"
   inkscape:window-height="732"
   inkscape:window-x="5"
   inkscape:window-y="29"
   inkscape:window-maximized="1"
   inkscape:current-layer="Layer_1"
   inkscape:document-units="mm" />
<style
   type="text/css"
   id="style1">
	.st0{fill:#EA2C38;}
	.st1{fill:#FFFFFF;}
</style>
<metadata
   id="metadata1"><?xpacket begin="﻿" id="W5M0MpCehiHzreSzNTczkc9d"?>
<x:xmpmeta
   x:xmptk="Adobe XMP Core 6.0-c002 79.164519, 2020/08/25-17:54:00        ">
   <rdf:RDF>
      <rdf:Description
   rdf:about="">
         <dc:format>image/svg+xml</dc:format>
         <dc:title>
            <rdf:Alt>
               <rdf:li
   xml:lang="x-default">Print</rdf:li>
            </rdf:Alt>
         </dc:title>
         <xmp:MetadataDate>2020-11-11T15:33:41+01:00</xmp:MetadataDate>
         <xmp:ModifyDate>2020-11-11T15:33:41+01:00</xmp:ModifyDate>
         <xmp:CreateDate>2020-11-11T15:33:41+01:00</xmp:CreateDate>
         <xmp:CreatorTool>Adobe Illustrator 25.0 (Macintosh)</xmp:CreatorTool>
         <xmp:Thumbnails>
            <rdf:Alt>
               <rdf:li
   rdf:parseType="Resource">
                  <xmpGImg:width>256</xmpGImg:width>
                  <xmpGImg:height>76</xmpGImg:height>
                  <xmpGImg:format>JPEG</xmpGImg:format>
                  <xmpGImg:image>/9j/4AAQSkZJRgABAgEASABIAAD/7QAsUGhvdG9zaG9wIDMuMAA4QklNA+0AAAAAABAASAAAAAEA
AQBIAAAAAQAB/+4ADkFkb2JlAGTAAAAAAf/bAIQABgQEBAUEBgUFBgkGBQYJCwgGBggLDAoKCwoK
DBAMDAwMDAwQDA4PEA8ODBMTFBQTExwbGxscHx8fHx8fHx8fHwEHBwcNDA0YEBAYGhURFRofHx8f
Hx8fHx8fHx8fHx8fHx8fHx8fHx8fHx8fHx8fHx8fHx8fHx8fHx8fHx8fHx8f/8AAEQgATAEAAwER
AAIRAQMRAf/EAaIAAAAHAQEBAQEAAAAAAAAAAAQFAwIGAQAHCAkKCwEAAgIDAQEBAQEAAAAAAAAA
AQACAwQFBgcICQoLEAACAQMDAgQCBgcDBAIGAnMBAgMRBAAFIRIxQVEGE2EicYEUMpGhBxWxQiPB
UtHhMxZi8CRygvElQzRTkqKyY3PCNUQnk6OzNhdUZHTD0uIIJoMJChgZhJRFRqS0VtNVKBry4/PE
1OT0ZXWFlaW1xdXl9WZ2hpamtsbW5vY3R1dnd4eXp7fH1+f3OEhYaHiImKi4yNjo+Ck5SVlpeYmZ
qbnJ2en5KjpKWmp6ipqqusra6voRAAICAQIDBQUEBQYECAMDbQEAAhEDBCESMUEFURNhIgZxgZEy
obHwFMHR4SNCFVJicvEzJDRDghaSUyWiY7LCB3PSNeJEgxdUkwgJChgZJjZFGidkdFU38qOzwygp
0+PzhJSktMTU5PRldYWVpbXF1eX1RlZmdoaWprbG1ub2R1dnd4eXp7fH1+f3OEhYaHiImKi4yNjo
+DlJWWl5iZmpucnZ6fkqOkpaanqKmqq6ytrq+v/aAAwDAQACEQMRAD8ALL29ur26lu7uVprmZi8s
rmrFjmjJJNl9Tx44wiIxFAKGBm7FXYq7FXYq7FXYquSR43V42KOpBVlNCCOhBGKCAdi+qvJ97c3v
lXSbu5cyXE1pC0sh6sxQVY+56nNziNxBfNNdjEM84jkJFN8scV2KuxV2KuxV2KuxV2KuxV2KuxV2
KuxV2KuxV2KuxV2KuxV2KuxV2KvjzNE+rIvT9J1XUnePTrOe8eMcnW3ieUqDtUhAaZKMSeQasuaG
PechH3mkXN5T81QQyTz6NfRQxKXlle2mVVVRVmZitAAOpwnHIdC1R1uCRoTgSf6QSnIOU7FVS3t5
7idILeNpp5WCxxRqWdmOwCqKkk4QLYykIiyaAR935Y8y2du9zd6Te29vHvJNLbyoigmgqzKANzkj
jkOYLRDWYZGoziT5EJZkHJdir6l8hf8AKFaJ/wAwcP8AxAZuMP0D3Pm3aX+MT/rFPstcJ2KuxV2K
uxV2KuxV2KuxV2KuxV2KuxV2KuxV2KuxV2KuxV2KuxV2KvjzNE+rPVfyA/47Oq/8wyf8TzN0XMvM
+0v93D3/AKHq3nP/AJQ/Xf8Atn3X/Jh8zMv0H3PNaD/GMf8AXj94fKmaZ9LdiqfeQ/8AlNNE/wCY
2H/iYy3D9YcHtL/F5/1S96/NT/lANX/4xx/8nkzZaj6C8V2P/jUPf+gvmfNQ+huxV9S+Qv8AlCtE
/wCYOH/iAzcYfoHufNu0v8Yn/WKfZa4TsVdirsVdirsVdirsVdirsVdirsVdirsVdirsVdirsVdi
rsVdirsVfHmaJ9Weq/kB/wAdnVf+YZP+J5m6LmXmfaX+7h7/AND1bzn/AMofrv8A2z7r/kw+ZmX6
D7nmtB/jGP8Arx+8PlUAsQAKk7ADqTmmfSnqflj8i9QvbVLrW7o2HqAMtpGoeUA/zsTxQ+1Dmbj0
ZO8tnm9X7RRhLhxji8+jJtM/JPTdM1mw1Oz1OYmymjmMUyI3Pg1aclKca/I5bHSAEEF12b2gnkxy
hKI9QrZkf5lWl1d+R9Vt7WF57h404QxKXdqSoTRRUnYZdnBMDTgdlTjHUwMjQv8AQ+Z57a5t5DFP
E8Mg2KSKVb7jmoIIfQ4zEhYNhF3WgavaaZBqV1bPBaXLmOB5BxLlRUlVO/Hfr0yRgQLLVDU45TMI
m5Dm+lfIX/KFaJ/zBw/8QGbXD9A9z572l/jE/wCsU+y1wnYq7FXYq7FXYq7FXYq7FXYq7FXYq7FX
Yq7FXYq7FXYq7FXYq7FXYq+PM0T6s9V/ID/js6r/AMwyf8TzN0XMvM+0v93D3/oerec/+UP13/tn
3X/Jh8zMv0H3PNaD/GMf9eP3h83+T9Z03Rdci1S/tGvRaAyW1uCFBn24FmNaBd2Gx3AzVYpiJsvf
67BPNjMInh4uZ8noif8AOQc3q/Hoa+lXotyeQHzMdDmV+d8nQn2ZFbZN/wCr+1l/lf8ANryvr1xF
Z1ksb+YhI4J1qrseio61H/BUy/HqYy26uq1nYubCDLaUR1H6ma5kOocSACSaAbknFXgX5y+crLW9
Vt9O06UTWWnBuc6GqyTPSvE91QLSvjXNbqsokaHR7fsHQSwwM5ipS6eT1/yF/wAoVon/ADBw/wDE
Bmbh+ge55XtL/GJ/1in2WuE7FXYq7FXYq7FXYq7FXYq7FXYq7FXYq7FXYq7FXYq7FXYq7FXYq7FX
x5mifVnpP5EX0cHmy4tXahu7RxGPF43V6f8AA8jmXoz6qef9o8ZOAS/mye4arZfXtMvLKvH61BJD
y8PUQrX8c2MhYp43Dk4JiXcQXyXc281tcS286GOaF2jlQ9VZTQg/I5pCK2fUISEgCORUsDJlf5Xa
dJf+etLRBVYJDcyN2CwqXFfmwA+nL9PG5h1nbGUQ00/Pb5vbfzR1mfSPJd7c20z2927RRW0sbcWD
tIpNCP8AIDZsNRPhgS8f2RgGXURBFx3v5Pn7UvNvmfU4jDf6pc3ELfahaRvTPzQEKfuzWSyyPMvc
4tDhxm4wiD7koytyn1L5C/5QrRP+YOH/AIgM3GH6B7nzbtL/ABif9Yp9lrhOxV2KuxV2KuxV2Kux
V2KuxV2KuxV2KuxV2KuxV2KuxV2KuxV2KuxV8eZon1ZHaLq13o+q2up2hpcWsgkSvQ06qadmFQfb
JQkYmw06jBHLAwlykH0/5Y8zaX5j0qLULCQEMAJoSRziem6OOxH49c3GPIJCw+c6vSTwTMJD9rEv
zB/KW28w3DanpkqWeqMP3yuD6MxGwLcalW9wDXw75Rm0wluObtOzO2jgHBMcUPtDztPyV89tP6Zt
4EStPXMycPnQVf8A4XMX8pN3x7f01XZ+T1f8vvy9s/KNpLLLKtxqdwoFzc0oioN/TSu/Gu5J65m4
cIgPN5jtPtOWqkABUByH6S8v/N7z1Br+oRaZp0gk0ywYkzD7Ms5+EsviqjZT337UzD1ObiNDkHo+
w+zjhgZz+uX2B55mK752KvqXyF/yhWif8wcP/EBm4w/QPc+bdpf4xP8ArFPstcJ2KuxV2KuxV2Ku
xV2KuxV2KuxV2KuxV2KuxV2KuxV2KuxV2KuxV2KvjzNE+rOxVMNF17V9EvBeaXdPazjYsh2YeDqa
qw9iMlCZibDRqNNjzR4Ziw9D038/NbhRV1HTYLsgU5xO0DH3NRKtfkMyo6w9Q6HL7NYyfRIx+39S
Ml/5yDmKERaEqSdme5LD7hEv68l+d8moezAvfJ/sf2sN80fmf5r8wxtbzzra2L7NaWwKKw/y2JLt
8iae2UZNRKXudto+yMGA2BxS7yxLKHaOxV2KvqXyF/yhWif8wcP/ABAZuMP0D3Pm3aX+MT/rFPst
cJ2KuxV2KuxV2KuxV2KuxV2KuxV2KuxV2KuxV2KuxV2KuxV2KuxV2Kvj6RHjdo3Uq6EqykUII2II
zRPqoNiwtxS7FXYq7FXYq7FXYq7FX1R5Hili8naLHKpSRbOHkrbEVQHcZucI9A9z5r2jIHUTI/nF
O8scN2KuxV2KuxV2KuxV2KuxV2KuxV2KuxV2KuxV2KuxV2KuxV2KuxV2KsQ1n/lVX6Rm/Sv6J/SF
f9I9X0fU5d/U78vnvlEvCverdrg/O8A4PE4enOvggf8AkC3/AGp/+SWR/c+Td/rj/tn2u/5At/2p
/wDklj+58l/1x/2z7Xf8gW/7U/8AySx/c+S/64/7Z9rv+QLf9qf/AJJY/ufJf9cf9s+13/IFv+1P
/wAksf3Pkv8Arj/tn2u/5At/2p/+SWP7nyX/AFx/2z7Xf8gW/wC1P/ySx/c+S/64/wC2farWn/Kn
frMX1f8AQ/r8h6X9zXl2pXv4YR4Xkxn+fo34lfFm+ZDpnYq7FXYq7FXYq7FXYq7FXYq7FXYq7FXY
q7FXYq7FXYq7FXYq7FXYq7FX/9k=</xmpGImg:image>
               </rdf:li>
            </rdf:Alt>
         </xmp:Thumbnails>
         <xmpMM:InstanceID>xmp.iid:158a4b99-5b26-4a36-be06-44dd730601de</xmpMM:InstanceID>
         <xmpMM:DocumentID>xmp.did:158a4b99-5b26-4a36-be06-44dd730601de</xmpMM:DocumentID>
         <xmpMM:OriginalDocumentID>uuid:5D20892493BFDB11914A8590D31508C8</xmpMM:OriginalDocumentID>
         <xmpMM:RenditionClass>proof:pdf</xmpMM:RenditionClass>
         <xmpMM:DerivedFrom
   rdf:parseType="Resource">
            <stRef:instanceID>xmp.iid:2936f693-ca86-4301-9812-39ed56492a80</stRef:instanceID>
            <stRef:documentID>xmp.did:2936f693-ca86-4301-9812-39ed56492a80</stRef:documentID>
            <stRef:originalDocumentID>uuid:5D20892493BFDB11914A8590D31508C8</stRef:originalDocumentID>
            <stRef:renditionClass>proof:pdf</stRef:renditionClass>
         </xmpMM:DerivedFrom>
         <xmpMM:History>
            <rdf:Seq>
               <rdf:li
   rdf:parseType="Resource">
                  <stEvt:action>saved</stEvt:action>
                  <stEvt:instanceID>xmp.iid:3835e419-95b8-4fe5-a956-9d89c016f4eb</stEvt:instanceID>
                  <stEvt:when>2020-04-14T10:21:39+02:00</stEvt:when>
                  <stEvt:softwareAgent>Adobe Illustrator 24.1 (Macintosh)</stEvt:softwareAgent>
                  <stEvt:changed>/</stEvt:changed>
               </rdf:li>
               <rdf:li
   rdf:parseType="Resource">
                  <stEvt:action>converted</stEvt:action>
                  <stEvt:parameters>from application/postscript to application/vnd.adobe.illustrator</stEvt:parameters>
               </rdf:li>
               <rdf:li
   rdf:parseType="Resource">
                  <stEvt:action>saved</stEvt:action>
                  <stEvt:instanceID>xmp.iid:88bfd1fa-7b9c-4947-b3dc-f021b6aa3cbb</stEvt:instanceID>
                  <stEvt:when>2020-05-06T13:32:03+02:00</stEvt:when>
                  <stEvt:softwareAgent>Adobe Illustrator 24.1 (Macintosh)</stEvt:softwareAgent>
                  <stEvt:changed>/</stEvt:changed>
               </rdf:li>
               <rdf:li
   rdf:parseType="Resource">
                  <stEvt:action>saved</stEvt:action>
                  <stEvt:instanceID>xmp.iid:2936f693-ca86-4301-9812-39ed56492a80</stEvt:instanceID>
                  <stEvt:when>2020-05-06T13:34:55+02:00</stEvt:when>
                  <stEvt:softwareAgent>Adobe Illustrator 24.1 (Macintosh)</stEvt:softwareAgent>
                  <stEvt:changed>/</stEvt:changed>
               </rdf:li>
               <rdf:li
   rdf:parseType="Resource">
                  <stEvt:action>converted</stEvt:action>
                  <stEvt:parameters>from application/postscript to application/vnd.adobe.illustrator</stEvt:parameters>
               </rdf:li>
               <rdf:li
   rdf:parseType="Resource">
                  <stEvt:action>converted</stEvt:action>
                  <stEvt:parameters>from application/postscript to application/vnd.adobe.illustrator</stEvt:parameters>
               </rdf:li>
               <rdf:li
   rdf:parseType="Resource">
                  <stEvt:action>converted</stEvt:action>
                  <stEvt:parameters>from application/postscript to application/vnd.adobe.illustrator</stEvt:parameters>
               </rdf:li>
               <rdf:li
   rdf:parseType="Resource">
                  <stEvt:action>converted</stEvt:action>
                  <stEvt:parameters>from application/postscript to application/vnd.adobe.illustrator</stEvt:parameters>
               </rdf:li>
               <rdf:li
   rdf:parseType="Resource">
                  <stEvt:action>saved</stEvt:action>
                  <stEvt:instanceID>xmp.iid:158a4b99-5b26-4a36-be06-44dd730601de</stEvt:instanceID>
                  <stEvt:when>2020-11-11T15:33:41+01:00</stEvt:when>
                  <stEvt:softwareAgent>Adobe Illustrator 25.0 (Macintosh)</stEvt:softwareAgent>
                  <stEvt:changed>/</stEvt:changed>
               </rdf:li>
            </rdf:Seq>
         </xmpMM:History>
         <illustrator:StartupProfile>Print</illustrator:StartupProfile>
         <xmpTPg:HasVisibleOverprint>False</xmpTPg:HasVisibleOverprint>
         <xmpTPg:HasVisibleTransparency>False</xmpTPg:HasVisibleTransparency>
         <xmpTPg:NPages>1</xmpTPg:NPages>
         <xmpTPg:MaxPageSize
   rdf:parseType="Resource">
            <stDim:w>60.000000</stDim:w>
            <stDim:h>20.000000</stDim:h>
            <stDim:unit>Millimeters</stDim:unit>
         </xmpTPg:MaxPageSize>
         <xmpTPg:PlateNames>
            <rdf:Seq>
               <rdf:li>Magenta</rdf:li>
               <rdf:li>Yellow</rdf:li>
            </rdf:Seq>
         </xmpTPg:PlateNames>
         <xmpTPg:SwatchGroups>
            <rdf:Seq>
               <rdf:li
   rdf:parseType="Resource">
                  <xmpG:groupName>Default Swatch Group</xmpG:groupName>
                  <xmpG:groupType>0</xmpG:groupType>
                  <xmpG:Colorants>
                     <rdf:Seq>
                        <rdf:li
   rdf:parseType="Resource">
                           <xmpG:swatchName>White</xmpG:swatchName>
                           <xmpG:mode>RGB</xmpG:mode>
                           <xmpG:type>PROCESS</xmpG:type>
                           <xmpG:red>255</xmpG:red>
                           <xmpG:green>255</xmpG:green>
                           <xmpG:blue>255</xmpG:blue>
                        </rdf:li>
                        <rdf:li
   rdf:parseType="Resource">
                           <xmpG:swatchName>Black</xmpG:swatchName>
                           <xmpG:mode>RGB</xmpG:mode>
                           <xmpG:type>PROCESS</xmpG:type>
                           <xmpG:red>29</xmpG:red>
                           <xmpG:green>29</xmpG:green>
                           <xmpG:blue>27</xmpG:blue>
                        </rdf:li>
                        <rdf:li
   rdf:parseType="Resource">
                           <xmpG:swatchName>ALG R=234 G=44 B=56</xmpG:swatchName>
                           <xmpG:type>PROCESS</xmpG:type>
                           <xmpG:tint>100.000000</xmpG:tint>
                           <xmpG:mode>RGB</xmpG:mode>
                           <xmpG:red>234</xmpG:red>
                           <xmpG:green>44</xmpG:green>
                           <xmpG:blue>56</xmpG:blue>
                        </rdf:li>
                        <rdf:li
   rdf:parseType="Resource">
                           <xmpG:swatchName>ALG R=0 G=46 B=101</xmpG:swatchName>
                           <xmpG:type>PROCESS</xmpG:type>
                           <xmpG:tint>100.000000</xmpG:tint>
                           <xmpG:mode>RGB</xmpG:mode>
                           <xmpG:red>0</xmpG:red>
                           <xmpG:green>46</xmpG:green>
                           <xmpG:blue>101</xmpG:blue>
                        </rdf:li>
                     </rdf:Seq>
                  </xmpG:Colorants>
               </rdf:li>
            </rdf:Seq>
         </xmpTPg:SwatchGroups>
         <pdf:Producer>Adobe PDF library 10.01</pdf:Producer>
      </rdf:Description>
   </rdf:RDF>
</x:xmpmeta>
                                                                                                    
                                                                                                    
                                                                                                    
                                                                                                    
                                                                                                    
                                                                                                    
                                                                                                    
                                                                                                    
                                                                                                    
                                                                                                    
                                                                                                    
                                                                                                    
                                                                                                    
                                                                                                    
                                                                                                    
                                                                                                    
                                                                                                    
                                                                                                    
                                                                                                    
                                                                                                    
                           
<?xpacket end="w"?>
	</metadata>
<g
   id="g25"
   transform="translate(-10.5,-6.8930948)">
	<g
   id="g2">
		<path
   class="st0"
   d="M 50.9,49.3 H 12.6 c -1.2,0 -2.1,-1 -2.1,-2.1 V 9 c 0,-1.2 1,-2.1 2.1,-2.1 H 50.9 C 52,6.8 53,7.8 53,9 v 38.3 c 0,1.1 -1,2 -2.1,2 z"
   id="path1" />
		<path
   class="st1"
   d="m 37.7,29.3 c 0.2,5.1 -1.9,8.9 -6.6,8.9 -3.6,0 -7.3,-2.7 -7.3,-8.1 V 15.6 h -6 v 14.8 c 0,5.6 3.7,11.3 12.4,11.3 8.4,0 11.7,-6 11.8,-11 6.1,0.9 8.9,-3.6 8.1,-6.7 -1.1,1.2 -2.8,2.3 -8.1,0.8 v -9.2 h -4.3 v 7.7 c -8.4,-2.7 -10.4,4.9 -10.4,4.9 0,0 4,-2.1 10.4,1.1"
   id="path2" />
	</g>
	<g
   id="g15">
		<g
   id="g14">
			<path
   class="st1"
   d="M 68.7,24.3 C 66,24.3 63.8,22.9 63.8,20 v -8 h 2.5 v 7.6 c 0,1.9 1.4,2.6 2.7,2.6 1.3,0 2.5,-0.7 2.5,-2.6 V 12 H 74 v 7.7 c 0.1,3 -2.1,4.6 -5.3,4.6 z"
   id="path3" />
			<path
   class="st1"
   d="m 82.8,24 v -5.4 c 0,-1.3 -0.7,-1.9 -1.8,-1.9 -0.6,0 -1.3,0.2 -1.7,0.5 V 24 h -2.4 v -8.9 l 2.3,-0.2 v 1.2 h 0.1 c 0.7,-0.7 1.7,-1.4 3,-1.4 1.6,0 2.9,1.1 2.9,3.1 V 24 Z"
   id="path4" />
			<path
   class="st1"
   d="m 88.9,13.4 c -0.7,0 -1.2,-0.6 -1.2,-1.3 0,-0.7 0.6,-1.2 1.2,-1.2 0.7,0 1.2,0.5 1.2,1.2 0,0.7 -0.5,1.3 -1.2,1.3 z M 87.7,24 v -9 h 2.4 v 9 z"
   id="path5" />
			<path
   class="st1"
   d="m 97.1,24.1 h -2 L 91.6,15 h 2.7 l 1.6,4.8 c 0.3,0.7 0.5,2 0.5,2 0,0 0.2,-1.3 0.5,-2 L 98.5,15 h 2.4 z"
   id="path6" />
			<path
   class="st1"
   d="m 109.5,19.9 h -6 c 0.1,1.5 1,2.6 2.7,2.6 1.1,0 2,-0.2 3.1,-0.6 l -0.1,1.7 c -1.1,0.4 -2.2,0.7 -3.6,0.7 -2.7,0 -4.4,-1.9 -4.4,-4.5 0,-2.9 1.9,-4.9 4.5,-4.9 2.6,0 3.8,1.8 3.8,3.8 0.1,0.3 0.1,0.9 0,1.2 z m -3.9,-3.5 c -1.1,0 -1.8,1.1 -2,2.2 h 3.8 c 0,-1.3 -0.6,-2.2 -1.8,-2.2 z"
   id="path7" />
			<path
   class="st1"
   d="m 117.1,17.5 c -0.5,-0.3 -1.1,-0.4 -1.6,-0.4 -0.5,0 -1.1,0.2 -1.4,0.5 V 24 h -2.4 v -8.9 l 2.2,-0.2 -0.1,1.6 h 0.1 c 0.5,-1 1.3,-1.7 2.3,-1.7 0.4,0 0.9,0.1 1.2,0.3 z"
   id="path8" />
			<path
   class="st1"
   d="m 121.2,24.2 c -1.2,0 -2.1,-0.2 -2.9,-0.7 l 0.3,-1.8 c 0.8,0.4 1.8,0.7 2.7,0.7 0.7,0 1.4,-0.2 1.4,-0.9 0,-1.4 -4.1,-1.1 -4.1,-4 0,-1.8 1.7,-2.8 3.6,-2.8 1,0 1.9,0.3 2.6,0.5 l -0.3,1.7 c -0.7,-0.3 -1.6,-0.5 -2.5,-0.5 -0.6,0 -1.2,0.2 -1.2,0.8 0,1.4 4.1,1.1 4.1,4 0.1,2 -1.6,3 -3.7,3 z"
   id="path9" />
			<path
   class="st1"
   d="m 128.3,13.4 c -0.7,0 -1.2,-0.6 -1.2,-1.3 0,-0.7 0.6,-1.2 1.2,-1.2 0.7,0 1.2,0.5 1.2,1.2 0,0.7 -0.5,1.3 -1.2,1.3 z M 127.1,24 v -9 h 2.4 v 9 z"
   id="path10" />
			<path
   class="st1"
   d="m 134.8,24.2 c -1.6,0 -2.6,-1 -2.6,-2.5 0,-0.5 0.1,-2.9 0.1,-4.3 v -0.8 h -0.8 v -0.9 l 2.9,-2.7 h 0.2 v 2 h 2.9 v 1.7 h -2.9 c 0,0.1 0,3 0,4.2 0,1 0.6,1.4 1.4,1.4 0.5,0 1,-0.1 1.5,-0.2 v 1.6 c -0.8,0.3 -1.7,0.5 -2.7,0.5 z"
   id="path11" />
			<path
   class="st1"
   d="m 146.8,19.9 h -6 c 0.1,1.5 1,2.6 2.7,2.6 1.1,0 2,-0.2 3.1,-0.6 l -0.1,1.7 c -1.1,0.4 -2.2,0.7 -3.6,0.7 -2.7,0 -4.3,-1.9 -4.3,-4.5 0,-2.9 1.9,-4.9 4.5,-4.9 2.6,0 3.8,1.8 3.8,3.8 0,0.3 0,0.9 -0.1,1.2 z m -3.9,-3.5 c -1.1,0 -1.8,1.1 -2,2.2 h 3.8 c 0,-1.3 -0.6,-2.2 -1.8,-2.2 z"
   id="path12" />
			<path
   class="st1"
   d="m 150.2,13.4 c -0.7,0 -1.2,-0.6 -1.2,-1.3 0,-0.7 0.6,-1.2 1.2,-1.2 0.7,0 1.2,0.5 1.2,1.2 0.1,0.7 -0.5,1.3 -1.2,1.3 z M 149.1,24 v -9 h 2.4 v 9 z"
   id="path13" />
			<path
   class="st1"
   d="m 156.8,24.2 c -1.6,0 -2.6,-1 -2.6,-2.5 0,-0.5 0.1,-2.9 0.1,-4.3 v -0.8 h -0.8 v -0.9 l 2.9,-2.7 h 0.2 v 2 h 2.9 v 1.7 h -2.9 c 0,0.1 0,3 0,4.2 0,1 0.6,1.4 1.4,1.4 0.5,0 1,-0.1 1.5,-0.2 v 1.6 c -0.8,0.3 -1.7,0.5 -2.7,0.5 z"
   id="path14" />
		</g>
	</g>
	<g
   id="g24">
		<g
   id="g23">
			<path
   class="st1"
   d="M 72.1,41.2 71,38 h -4 l -1,3.2 h -2.6 l 4.4,-12 h 2.8 l 4.4,12 z M 69.3,32.7 C 69.1,32.2 69,31.3 69,31.3 c 0,0 -0.1,0.9 -0.3,1.4 l -1.2,3.6 h 3.1 z"
   id="path15" />
			<path
   class="st1"
   d="m 82.4,41.2 v -5.4 c 0,-1.3 -0.7,-1.9 -1.8,-1.9 -0.6,0 -1.3,0.2 -1.7,0.5 v 6.9 h -2.4 v -8.9 l 2.3,-0.2 v 1.2 h 0.1 c 0.7,-0.7 1.7,-1.4 3,-1.4 1.6,0 2.9,1.1 2.9,3.1 v 6.1 z"
   id="path16" />
			<path
   class="st1"
   d="m 89.9,41.3 c -1.6,0 -2.6,-1 -2.6,-2.5 0,-0.5 0.1,-2.9 0.1,-4.3 v -0.8 h -0.8 v -0.9 l 2.9,-2.7 h 0.2 v 2 h 2.9 v 1.7 h -2.9 c 0,0.1 0,3 0,4.2 0,1 0.6,1.4 1.4,1.4 0.5,0 1,-0.1 1.5,-0.2 v 1.6 c -0.8,0.3 -1.7,0.5 -2.7,0.5 z"
   id="path17" />
			<path
   class="st1"
   d="m 104.7,41.2 h -1.9 l -1.7,-4.5 c -0.3,-0.7 -0.4,-1.9 -0.4,-1.9 0,0 -0.3,1.2 -0.5,1.9 l -1.7,4.5 h -1.8 l -3.1,-9.1 h 2.6 l 1.3,4.4 c 0.2,0.7 0.4,2.1 0.4,2.1 0,0 0.3,-1.3 0.5,-2.1 L 100,32 h 1.7 l 1.6,4.5 c 0.3,0.7 0.5,2 0.5,2 0,0 0.2,-1.3 0.4,-2.1 l 1.3,-4.4 h 2.3 z"
   id="path18" />
			<path
   class="st1"
   d="m 116.8,37 h -6 c 0.1,1.5 1,2.6 2.7,2.6 1.1,0 2,-0.2 3.1,-0.6 l -0.1,1.7 c -1.1,0.4 -2.2,0.7 -3.6,0.7 -2.7,0 -4.3,-1.9 -4.3,-4.5 0,-2.9 1.9,-4.9 4.5,-4.9 2.6,0 3.8,1.8 3.8,3.8 0,0.3 0,0.9 -0.1,1.2 z m -3.9,-3.5 c -1.1,0 -1.8,1.1 -2,2.2 h 3.8 c 0,-1.3 -0.6,-2.2 -1.8,-2.2 z"
   id="path19" />
			<path
   class="st1"
   d="m 124.4,34.6 c -0.5,-0.3 -1.1,-0.4 -1.6,-0.4 -0.5,0 -1.1,0.2 -1.4,0.5 v 6.5 H 119 v -8.9 l 2.2,-0.2 -0.1,1.6 h 0.1 c 0.5,-1 1.3,-1.7 2.3,-1.7 0.4,0 0.9,0.1 1.2,0.3 z"
   id="path20" />
			<path
   class="st1"
   d="m 130,41.3 c -0.5,0 -1,-0.1 -1.3,-0.3 v 4.7 h -2.4 V 32.2 l 2.3,-0.2 v 1.2 h 0.1 c 0.7,-0.8 1.7,-1.3 2.7,-1.3 2.2,0 3.6,1.9 3.6,4.4 -0.1,3 -2,5 -5,5 z m 0.3,-7.5 c -0.6,0 -1.2,0.2 -1.6,0.5 v 5 c 0.3,0.2 0.9,0.4 1.5,0.4 1.6,0 2.4,-1.2 2.4,-2.9 -0.1,-1.9 -1,-3 -2.3,-3 z"
   id="path21" />
			<path
   class="st1"
   d="m 144.6,37 h -6 c 0.1,1.5 1,2.6 2.7,2.6 1.1,0 2,-0.2 3.1,-0.6 l -0.1,1.7 c -1.1,0.4 -2.2,0.7 -3.6,0.7 -2.7,0 -4.4,-1.9 -4.4,-4.5 0,-2.9 1.9,-4.9 4.5,-4.9 2.6,0 3.8,1.8 3.8,3.8 0.1,0.3 0.1,0.9 0,1.2 z m -3.9,-3.5 c -1.1,0 -1.8,1.1 -2,2.2 h 3.8 c 0,-1.3 -0.6,-2.2 -1.8,-2.2 z"
   id="path22" />
			<path
   class="st1"
   d="m 152.7,41.2 v -5.4 c 0,-1.3 -0.7,-1.9 -1.8,-1.9 -0.6,0 -1.3,0.2 -1.7,0.5 v 6.9 h -2.4 v -8.9 l 2.3,-0.2 v 1.2 h 0.1 c 0.7,-0.7 1.7,-1.4 3,-1.4 1.6,0 2.9,1.1 2.9,3.1 v 6.1 z"
   id="path23" />
		</g>
	</g>
</g>
</svg>
