<?xml version="1.0" encoding="UTF-8" standalone="no"?>
<!-- Created with Inkscape (http://www.inkscape.org/) -->

<svg
   width="187.50676mm"
   height="166.2448mm"
   viewBox="0 0 187.50676 166.2448"
   version="1.1"
   id="svg5"
   xml:space="preserve"
   inkscape:version="1.2.2 (b0a8486541, 2022-12-01)"
   sodipodi:docname="the_wrench.svg"
   inkscape:export-filename="the_wrench.pdf"
   inkscape:export-xdpi="150"
   inkscape:export-ydpi="150"
   xmlns:inkscape="http://www.inkscape.org/namespaces/inkscape"
   xmlns:sodipodi="http://sodipodi.sourceforge.net/DTD/sodipodi-0.dtd"
   xmlns="http://www.w3.org/2000/svg"
   xmlns:svg="http://www.w3.org/2000/svg"><sodipodi:namedview
     id="namedview7"
     pagecolor="#ffffff"
     bordercolor="#666666"
     borderopacity="1.0"
     inkscape:showpageshadow="2"
     inkscape:pageopacity="0.0"
     inkscape:pagecheckerboard="0"
     inkscape:deskcolor="#d1d1d1"
     inkscape:document-units="mm"
     showgrid="false"
     inkscape:zoom="1.3321094"
     inkscape:cx="354.70061"
     inkscape:cy="314.1634"
     inkscape:window-width="1908"
     inkscape:window-height="1044"
     inkscape:window-x="5"
     inkscape:window-y="29"
     inkscape:window-maximized="1"
     inkscape:current-layer="layer1" /><defs
     id="defs2"><marker
       style="overflow:visible"
       id="marker2416"
       refX="0"
       refY="0"
       orient="auto-start-reverse"
       inkscape:stockid="Arrow2"
       markerWidth="7.6999998"
       markerHeight="5.5999999"
       viewBox="0 0 7.7 5.6"
       inkscape:isstock="true"
       inkscape:collect="always"
       preserveAspectRatio="xMidYMid"><path
         transform="scale(0.7)"
         d="M -2,-4 9,0 -2,4 c 2,-2.33 2,-5.66 0,-8 z"
         style="fill:context-stroke;fill-rule:evenodd;stroke:none"
         id="path2414" /></marker><marker
       style="overflow:visible"
       id="marker2128"
       refX="0"
       refY="0"
       orient="auto-start-reverse"
       inkscape:stockid="Arrow2"
       markerWidth="7.6999998"
       markerHeight="5.5999999"
       viewBox="0 0 7.7 5.6"
       inkscape:isstock="true"
       inkscape:collect="always"
       preserveAspectRatio="xMidYMid"><path
         transform="scale(0.7)"
         d="M -2,-4 9,0 -2,4 c 2,-2.33 2,-5.66 0,-8 z"
         style="fill:context-stroke;fill-rule:evenodd;stroke:none"
         id="path2126" /></marker><marker
       style="overflow:visible"
       id="Arrow2"
       refX="0"
       refY="0"
       orient="auto-start-reverse"
       inkscape:stockid="Arrow2"
       markerWidth="7.6999998"
       markerHeight="5.5999999"
       viewBox="0 0 7.7 5.6"
       inkscape:isstock="true"
       inkscape:collect="always"
       preserveAspectRatio="xMidYMid"><path
         transform="scale(0.7)"
         d="M -2,-4 9,0 -2,4 c 2,-2.33 2,-5.66 0,-8 z"
         style="fill:context-stroke;fill-rule:evenodd;stroke:none"
         id="arrow2L" /></marker></defs><g
     inkscape:label="Layer 1"
     inkscape:groupmode="layer"
     id="layer1"
     transform="translate(-33.389488,-24.921972)"><g
       id="g1099"><path
         style="fill:none;stroke:#000000;stroke-width:0.236386px;stroke-linecap:butt;stroke-linejoin:miter;stroke-opacity:1"
         d="m 45.96089,167.22169 7.187057,1.47746 4.352114,6.95171 -4.438872,6.8841 -8.876836,-1.45519 -3.869233,-6.91086 z"
         id="path921"
         sodipodi:nodetypes="ccccccc" /><circle
         style="fill:none;stroke:#000000;stroke-width:0.3;stroke-linecap:round;stroke-dasharray:none;stroke-opacity:1"
         id="path1071"
         cx="48.906441"
         cy="174.87781"
         r="4.0385385" /></g><path
       style="fill:none;stroke:#000000;stroke-width:0.59626;stroke-dasharray:none;stroke-opacity:1"
       d="m 124.63309,189.82881 c -0.57187,-0.57189 -1.03977,-1.37055 -1.03977,-1.77482 0,-0.66165 -0.34798,-0.73501 -3.48627,-0.73501 -6.48469,0 -18.38897,-1.34851 -32.207059,-3.64839 -6.593848,-1.09748 -8.39339,-1.24623 -14.987253,-1.23879 -8.279683,0.009 -12.945851,0.61367 -17.945254,2.3242 -3.687646,1.26172 -6.891471,1.62407 -8.479624,0.95904 -0.650759,-0.27249 -1.360681,-0.44624 -1.5776,-0.38607 -0.21692,0.0602 -0.879395,0.10076 -1.472152,0.0903 -0.592772,-0.0104 -1.180058,0.14638 -1.305079,0.34872 -0.420885,0.68101 -2.909213,0.4002 -3.730398,-0.42097 -0.851891,-0.85189 -1.092452,-3.31539 -0.367504,-3.76343 0.231706,-0.14325 0.326094,-0.50845 0.209749,-0.81165 -0.116271,-0.3032 -0.06768,-0.94009 0.108072,-1.41534 0.201387,-0.54441 0.124768,-1.23761 -0.20732,-1.87384 -0.920759,-1.76438 -0.60662,-4.22735 1.235183,-9.68459 2.459618,-7.28785 3.11057,-11.36382 2.83471,-17.75007 -0.162391,-3.75988 -0.547128,-6.49454 -1.442651,-10.25442 -1.530153,-6.42436 -2.939175,-15.00128 -3.579797,-21.79067 -0.368697,-3.90749 -0.628697,-5.22582 -1.030636,-5.22582 -0.295655,0 -0.734413,-0.48807 -0.975034,-1.08461 -0.240621,-0.59653 -0.720879,-1.6614 -1.067246,-2.36641 -0.576718,-1.17387 -0.576718,-1.38972 0,-2.5636 0.346367,-0.70499 0.826625,-1.76988 1.067246,-2.36641 0.240621,-0.59653 0.679379,-1.0846 0.975034,-1.0846 0.401939,0 0.661939,-1.31833 1.030636,-5.225816 0.640622,-6.789406 2.049644,-15.36631 3.579797,-21.790671 0.895523,-3.759882 1.28026,-6.49454 1.442651,-10.254437 0.27586,-6.386235 -0.375092,-10.46221 -2.83471,-17.750075 -1.841803,-5.457235 -2.155942,-7.920211 -1.235183,-9.684581 0.332013,-0.636224 0.408707,-1.32942 0.20732,-1.873847 -0.175807,-0.475237 -0.224447,-1.112145 -0.108072,-1.41534 0.11642,-0.303201 0.02191,-0.668436 -0.209749,-0.811643 -0.724948,-0.44804 -0.484387,-2.911537 0.367504,-3.763428 0.821185,-0.821174 3.309513,-1.10198 3.730398,-0.420976 0.125065,0.202308 0.712307,0.359233 1.305079,0.348725 0.592757,-0.01043 1.255232,0.0301 1.472152,0.09026 0.216919,0.06015 0.926841,-0.113587 1.5776,-0.386092 1.588153,-0.665022 4.791978,-0.30267 8.479624,0.959051 5.027919,1.720288 9.665139,2.319659 17.945254,2.319465 6.551528,-1.54e-4 8.435725,-0.15614 14.987253,-1.240731 13.918879,-2.304249 25.747319,-3.641711 32.207059,-3.641711 3.13829,0 3.48627,-0.07337 3.48627,-0.735022 0,-1.298933 1.91146,-2.814589 3.54961,-2.814589 1.62536,0 3.5496,1.512682 3.5496,2.790424 0,0.905995 1.16193,1.053209 10.45163,1.324202 8.52889,0.2488 18.96857,1.401761 25.54883,2.821617 3.88749,0.838828 6.24681,1.078763 12.19429,1.240128 8.53258,0.231505 12.42328,-0.258345 19.63272,-2.471803 4.83849,-1.485528 7.08419,-1.682658 8.82513,-0.774683 1.12195,0.58515 1.92508,0.538913 4.65759,-0.268122 2.06427,-0.609669 3.43056,-0.151572 4.06775,1.363856 0.43183,1.027032 0.43913,1.488651 0.0388,2.451262 -0.2713,0.652273 -0.41646,1.413487 -0.32258,1.691587 0.0939,0.278104 -0.0996,0.918205 -0.43002,1.422455 -0.54214,0.827406 -0.53738,0.98015 0.0487,1.566334 0.94749,0.947488 0.74796,4.225862 -0.46311,7.609597 -1.42703,3.987072 -2.91445,11.663445 -3.44533,17.780857 -0.55388,6.382651 -0.19478,9.683414 1.83588,16.874684 2.20489,7.808205 3.71068,14.982199 3.9924,19.020848 0.18857,2.703085 0.39454,3.648215 0.79507,3.648215 0.29731,0 0.73744,0.48807 0.97806,1.0846 0.24062,0.59653 0.72088,1.66142 1.06724,2.36641 0.57672,1.17388 0.57672,1.38973 0,2.5636 -0.34636,0.70501 -0.82662,1.76988 -1.06724,2.36641 -0.24062,0.59654 -0.68075,1.08461 -0.97806,1.08461 -0.40053,0 -0.6065,0.94513 -0.79507,3.64821 -0.28172,4.03866 -1.78751,11.21265 -3.9924,19.02086 -2.03066,7.19125 -2.38976,10.49203 -1.83588,16.87467 0.53088,6.1174 2.0183,13.79378 3.44533,17.78085 1.21107,3.38373 1.4106,6.6621 0.46311,7.6096 -0.58618,0.58617 -0.59094,0.73892 -0.0487,1.56634 0.3304,0.50424 0.52391,1.14434 0.43002,1.42245 -0.0939,0.27809 0.0513,1.03931 0.32258,1.69159 0.40035,0.9626 0.39305,1.42423 -0.0388,2.45125 -0.63719,1.51543 -2.00348,1.97354 -4.06775,1.36386 -2.73251,-0.80704 -3.53564,-0.85326 -4.65759,-0.26812 -1.74094,0.90798 -3.98664,0.71084 -8.82513,-0.77468 -7.20944,-2.21347 -11.10014,-2.70331 -19.63272,-2.47181 -5.94748,0.16136 -8.3068,0.4013 -12.19429,1.24013 -6.58026,1.41986 -17.01994,2.57282 -25.54883,2.82162 -9.2897,0.27099 -10.45163,0.4182 -10.45163,1.32421 0,1.27774 -1.92424,2.79042 -3.5496,2.79042 -1.06246,0 -1.75834,-0.28831 -2.50984,-1.03979 z m 73.10766,-81.39008 V 49.672931 H 127.14293 56.545099 v 58.765799 58.76579 h 70.597831 70.59782 z"
       id="path1085" /><g
       id="g1095"><path
         style="fill:#ffffff;fill-opacity:1;stroke:#000000;stroke-width:0.3;stroke-dasharray:none;stroke-opacity:1"
         d="m 51.381171,186.76225 c 0.09786,-0.16618 0.971012,-1.49277 1.940329,-2.94798 0.969317,-1.45521 2.506763,-3.8806 3.416549,-5.38976 l 1.654156,-2.74393 -0.731673,-1.35711 c -0.402421,-0.74641 -1.46308,-2.48821 -2.357022,-3.87066 l -1.625346,-2.51354 -3.819202,-0.75391 c -2.100564,-0.41465 -4.001042,-0.80121 -4.223284,-0.85902 -0.271108,-0.0705 -1.697697,1.59813 -4.335108,5.07068 -2.689969,3.54175 -4.016828,5.08999 -4.202795,4.90402 -0.483431,-0.48343 -0.358966,-8.11314 0.164459,-10.08156 0.847561,-3.18736 2.130711,-5.46976 4.227751,-7.52009 3.282048,-3.20894 6.181677,-4.26708 14.163788,-5.16867 5.114825,-0.57773 6.683023,-0.95476 8.56347,-2.05886 1.336677,-0.78483 7.159499,-5.77449 31.437099,-26.93888 8.522468,-7.4296 19.062218,-16.58681 23.421648,-20.34935 4.35945,-3.76254 8.13576,-7.149245 8.39182,-7.526005 0.64612,-0.9507 0.89309,-1.97432 1.5135,-6.27282 0.82225,-5.69698 1.72659,-7.91496 4.33455,-10.63088 1.88943,-1.96764 4.49255,-3.65353 7.43911,-4.81787 2.75438,-1.08841 6.82161,-2.18043 6.57708,-1.7659 -0.10151,0.17207 -0.97764,1.50349 -1.94696,2.9587 -0.96932,1.45521 -2.50676,3.8806 -3.41655,5.38976 l -1.65415,2.74393 0.72487,1.35711 c 0.39867,0.74641 1.46701,2.50023 2.37409,3.89738 1.87967,2.89522 1.53479,2.71635 7.08321,3.67356 2.38456,0.41138 3.01575,0.44541 3.22861,0.17408 0.14552,-0.18549 1.92044,-2.51356 3.94426,-5.17349 3.17351,-4.17096 3.71716,-4.76924 3.95218,-4.34929 0.46993,0.83973 0.34202,7.91829 -0.17858,9.88175 -0.8441,3.18358 -2.12847,5.46887 -4.22642,7.520095 -3.2799,3.20684 -6.17203,4.26308 -14.16379,5.17277 -2.57042,0.29258 -5.14973,0.66549 -5.73182,0.82867 -3.03484,0.85079 -2.26434,0.20939 -37.3077,31.05621 -12.223888,10.76004 -19.123468,16.79734 -25.971118,22.72535 -3.27861,2.8383 -3.53138,3.35006 -4.301321,8.70855 -0.650023,4.5239 -1.389049,6.71903 -3.041861,9.03524 -1.382239,1.93703 -2.944662,3.27018 -5.618184,4.79375 -2.698829,1.538 -10.173347,4.00234 -9.699645,3.19797 z"
         id="path1087"
         sodipodi:nodetypes="ssscsscssssssssssssssssscssssssssssssssss" /><g
         id="g1090"><path
           style="fill:none;fill-opacity:1;stroke:#000000;stroke-width:0.3;stroke-dasharray:none;stroke-opacity:1"
           d="m 51.381171,186.76225 c 0.09786,-0.16618 0.971012,-1.49277 1.940329,-2.94798 0.969317,-1.45521 2.506763,-3.8806 3.416549,-5.38976 l 1.654156,-2.74393 -0.731673,-1.35711 c -0.402421,-0.74641 -1.46308,-2.48821 -2.357022,-3.87066 l -1.625346,-2.51354 -3.819202,-0.75391 c -2.100564,-0.41465 -4.001042,-0.80121 -4.223284,-0.85902 -0.271108,-0.0705 -1.697697,1.59813 -4.335108,5.07068 -2.689969,3.54175 -4.016828,5.08999 -4.202795,4.90402 -0.483431,-0.48343 -0.358966,-8.11314 0.164459,-10.08156 0.847561,-3.18736 2.130711,-5.46976 4.227751,-7.52009 3.282048,-3.20894 6.181677,-4.26708 14.163788,-5.16867 5.114825,-0.57773 6.683023,-0.95476 8.56347,-2.05886 1.336677,-0.78483 7.159499,-5.77449 31.437099,-26.93888 8.522468,-7.4296 19.062218,-16.58681 23.421648,-20.34935 4.35945,-3.76254 8.13576,-7.149245 8.39182,-7.526005 0.64612,-0.9507 0.89309,-1.97432 1.5135,-6.27282 0.82225,-5.69698 1.72659,-7.91496 4.33455,-10.63088 1.88943,-1.96764 4.49255,-3.65353 7.43911,-4.81787 2.75438,-1.08841 6.82161,-2.18043 6.57708,-1.7659 -0.10151,0.17207 -0.97764,1.50349 -1.94696,2.9587 -0.96932,1.45521 -2.50676,3.8806 -3.41655,5.38976 l -1.65415,2.74393 0.72487,1.35711 c 0.39867,0.74641 1.46701,2.50023 2.37409,3.89738 1.87967,2.89522 1.53479,2.71635 7.08321,3.67356 2.38456,0.41138 3.01575,0.44541 3.22861,0.17408 0.14552,-0.18549 1.92044,-2.51356 3.94426,-5.17349 3.17351,-4.17096 3.71716,-4.76924 3.95218,-4.34929 0.46993,0.83973 0.34202,7.91829 -0.17858,9.88175 -0.8441,3.18358 -2.12847,5.46887 -4.22642,7.520095 -3.2799,3.20684 -6.17203,4.26308 -14.16379,5.17277 -2.57042,0.29258 -5.14973,0.66549 -5.73182,0.82867 -3.03484,0.85079 -2.26434,0.20939 -37.3077,31.05621 -12.223888,10.76004 -19.123468,16.79734 -25.971118,22.72535 -3.27861,2.8383 -3.53138,3.35006 -4.301321,8.70855 -0.650023,4.5239 -1.389049,6.71903 -3.041861,9.03524 -1.382239,1.93703 -2.944662,3.27018 -5.618184,4.79375 -2.698829,1.538 -10.173347,4.00234 -9.699645,3.19797 z m 17.656592,-17.10319 c -0.006,-4.08314 -1.329809,-7.11921 -4.682659,-10.73898 -2.272866,-2.4538 -5.826281,-4.09852 -8.772223,-4.06027 l -1.341041,0.0174 1.382578,0.37238 c 4.484348,1.2078 8.393519,4.62707 10.836737,9.47865 1.083321,2.15119 1.932718,5.27796 1.943939,7.15595 0.0069,1.16206 0.05112,1.27417 0.322188,0.81757 0.184119,-0.31015 0.312627,-1.56951 0.310481,-3.04271 z m 10.197669,-19.8108 c 0.79512,-0.67296 10.97496,-9.40528 22.621868,-19.40515 14.47357,-12.42679 21.33081,-18.4798 21.66466,-19.12377 0.45755,-0.88259 0.46076,-0.98445 0.0507,-1.61026 -0.51967,-0.79311 -1.35775,-1.15255 -2.1725,-0.93174 -0.69652,0.18876 -45.418088,38.93482 -46.046598,39.89405 -0.54445,0.83092 -0.2166,1.9177 0.72078,2.38928 0.88786,0.44668 1.46016,0.22717 3.16107,-1.21241 z m 64.057638,-45.16847 c -6.89409,-1.85338 -12.17271,-8.384005 -12.70518,-15.718645 l -0.16327,-2.24896 -0.32212,1.40209 c -1.01342,4.41106 0.29575,8.90897 3.65553,12.559385 2.58318,2.80663 5.96218,4.38771 9.38381,4.39081 l 1.5875,0.001 -1.43627,-0.38612 z"
           id="path248" /></g></g><g
       id="g1105"
       transform="rotate(-45,127.66642,-12.737742)"><path
         style="fill:none;stroke:#000000;stroke-width:0.236386px;stroke-linecap:butt;stroke-linejoin:miter;stroke-opacity:1"
         d="m 45.96089,167.22169 7.187057,1.47746 4.352114,6.95171 -4.438872,6.8841 -8.876836,-1.45519 -3.869233,-6.91086 z"
         id="path1101"
         sodipodi:nodetypes="ccccccc" /><circle
         style="fill:none;stroke:#000000;stroke-width:0.3;stroke-linecap:round;stroke-dasharray:none;stroke-opacity:1"
         id="circle1103"
         cx="48.906441"
         cy="174.87781"
         r="4.0385385" /></g><g
       id="g1111"
       transform="rotate(-30,-123.56019,-182.60695)"><path
         style="fill:none;stroke:#000000;stroke-width:0.236386px;stroke-linecap:butt;stroke-linejoin:miter;stroke-opacity:1"
         d="m 45.96089,167.22169 7.187057,1.47746 4.352114,6.95171 -4.438872,6.8841 -8.876836,-1.45519 -3.869233,-6.91086 z"
         id="path1107"
         sodipodi:nodetypes="ccccccc" /><circle
         style="fill:none;stroke:#000000;stroke-width:0.3;stroke-linecap:round;stroke-dasharray:none;stroke-opacity:1"
         id="circle1109"
         cx="48.906441"
         cy="174.87781"
         r="4.0385385" /></g><g
       id="g1117"
       transform="rotate(-30,-200.76599,107.58234)"><path
         style="fill:none;stroke:#000000;stroke-width:0.236386px;stroke-linecap:butt;stroke-linejoin:miter;stroke-opacity:1"
         d="m 45.96089,167.22169 7.187057,1.47746 4.352114,6.95171 -4.438872,6.8841 -8.876836,-1.45519 -3.869233,-6.91086 z"
         id="path1113"
         sodipodi:nodetypes="ccccccc" /><circle
         style="fill:none;stroke:#000000;stroke-width:0.3;stroke-linecap:round;stroke-dasharray:none;stroke-opacity:1"
         id="circle1115"
         cx="48.906441"
         cy="174.87781"
         r="4.0385385" /></g><path
       style="fill:#808080;stroke:#808080;stroke-width:1;stroke-linecap:butt;stroke-linejoin:miter;stroke-dasharray:none;stroke-opacity:1;marker-end:url(#Arrow2);fill-opacity:1"
       d="M 49.169296,175.04967 H 141.98536"
       id="path1119" /><path
       style="fill:#808080;stroke:#808080;stroke-width:1;stroke-linecap:butt;stroke-linejoin:miter;stroke-dasharray:none;stroke-opacity:1;marker-end:url(#Arrow2);fill-opacity:1"
       d="M 49.159401,175.2808 V 82.464742"
       id="path1338" /><text
       xml:space="preserve"
       style="font-size:5.64444px;line-height:1.25;font-family:Calibri;-inkscape-font-specification:Calibri;text-align:center;letter-spacing:0px;word-spacing:0px;text-anchor:middle;fill:#808080;fill-opacity:1;stroke-width:0.264583"
       x="128.95872"
       y="182.54041"
       id="text1479"><tspan
         sodipodi:role="line"
         id="tspan1477"
         style="font-size:5.64444px;fill:#808080;fill-opacity:1;stroke-width:0.264583"
         x="128.95872"
         y="182.54041">Frame of Reference</tspan></text><path
       style="fill:#800000;fill-opacity:1;stroke:#800000;stroke-width:2;stroke-linecap:butt;stroke-linejoin:miter;stroke-dasharray:none;stroke-opacity:1;marker-start:url(#marker2128)"
       d="M 133.22125,85.743144 106.34016,51.844969"
       id="path2066" /><text
       xml:space="preserve"
       style="font-size:5.64444px;line-height:1.25;font-family:Calibri;-inkscape-font-specification:Calibri;text-align:center;letter-spacing:0px;word-spacing:0px;text-anchor:middle;fill:#808080;fill-opacity:1;stroke-width:0.264583"
       x="106.80543"
       y="64.228661"
       id="text2290"><tspan
         sodipodi:role="line"
         id="tspan2288"
         style="font-style:normal;font-variant:normal;font-weight:bold;font-stretch:normal;font-size:5.64444px;font-family:Calibri;-inkscape-font-specification:'Calibri Bold';text-align:end;text-anchor:end;fill:#800000;fill-opacity:1;stroke:none;stroke-width:0.264583;stroke-opacity:1"
         x="106.80543"
         y="64.228661">a Wrench</tspan></text><text
       xml:space="preserve"
       style="font-size:5.64444px;line-height:1.25;font-family:Calibri;-inkscape-font-specification:Calibri;text-align:center;letter-spacing:0px;word-spacing:0px;text-anchor:middle;fill:#808080;fill-opacity:1;stroke-width:0.264583;stroke:none;stroke-opacity:1"
       x="140.92239"
       y="97.261673"
       id="text2298"><tspan
         sodipodi:role="line"
         id="tspan2296"
         style="font-style:normal;font-variant:normal;font-weight:normal;font-stretch:normal;font-size:5.64444px;font-family:Calibri;-inkscape-font-specification:Calibri;fill:#808080;fill-opacity:1;stroke:none;stroke-width:0.264583;stroke-opacity:1"
         x="140.92239"
         y="97.261673">X</tspan></text><text
       xml:space="preserve"
       style="font-size:5.64444px;line-height:1.25;font-family:Calibri;-inkscape-font-specification:Calibri;text-align:center;letter-spacing:0px;word-spacing:0px;text-anchor:middle;fill:#808080;fill-opacity:1;stroke:none;stroke-width:0.264583;stroke-opacity:1"
       x="141.96915"
       y="102.08337"
       id="text2302"><tspan
         sodipodi:role="line"
         id="tspan2300"
         style="font-style:normal;font-variant:normal;font-weight:normal;font-stretch:normal;font-size:5.64444px;font-family:Calibri;-inkscape-font-specification:Calibri;text-align:start;text-anchor:start;fill:#808080;fill-opacity:1;stroke:none;stroke-width:0.264583;stroke-opacity:1"
         x="141.96915"
         y="102.08337">Point of Application</tspan></text><path
       style="fill:none;stroke:#800000;stroke-width:0.265;stroke-linecap:butt;stroke-linejoin:miter;stroke-dasharray:none;stroke-opacity:1;marker-end:url(#marker2416)"
       d="m 99.132356,65.939153 c 5.614994,3.43635 12.245354,1.473154 14.162464,-0.437476"
       id="path2412"
       sodipodi:nodetypes="cc" /></g></svg>
